# xmcd
#
# Track frame offsets: 
#        150
#        19245
#        39225
#        65497
#
# Disc length: 1026 seconds
#
# Revision: 4
# Processed by: cddbd v1.5.2PL0 Copyright (c) Steve Scherf et al.
# Submitted via: ExactAudioCopy v0.95b4
#
DISCID=2b040004
DTITLE=Shivaree - Corrupt and Immoral Transmissions
DYEAR=2000
DGENRE=Blues
TTITLE0=Goodnight moon (Live KCRW "Morning Becomes Eclectic" March 23,
TTITLE0=2000)
TTITLE1=I don't care (Live KCRW "The Open Road" )
TTITLE2=Scrub
TTITLE3=My Boy Lollipop
EXTD=
EXTT0=
EXTT1=
EXTT2=
EXTT3=
PLAYORDER=
